<?xml version="1.0" encoding="UTF-8"?>
<svg width="21px" height="20px" viewBox="0 0 21 20" version="1.1" xmlns="http://www.w3.org/2000/svg" xmlns:xlink="http://www.w3.org/1999/xlink">
    <!-- Generator: Sketch 47 (45396) - http://www.bohemiancoding.com/sketch -->
    <title>Shape</title>
    <desc>Created with Sketch.</desc>
    <defs></defs>
    <g id="Page-1" stroke="none" stroke-width="1" fill="none" fill-rule="evenodd">
        <g id="Desktop-HD" transform="translate(-71.000000, -48.000000)" fill="#C29272">
            <path d="M78.0186803,54.0665155 C75.5513944,54.5479371 75.1903282,56.9550453 75.8522829,59.0010873 C75.6115721,59.1816204 73.8664187,59.2417981 73.1442862,61.1674846 C72.6026869,62.6719272 73.1442862,64.1161921 73.9867741,64.8985023 C75.1301505,65.981701 76.0929938,65.8011679 77.9585026,65.8011679 L87.8276461,65.8011679 C89.693155,65.8011679 90.6559983,65.981701 91.8595523,64.8985023 C93.4843504,63.4542374 93.3038172,60.3249968 90.9568868,59.3019758 C90.6559983,59.1816204 90.1143989,59.1214427 89.9940435,59.0010873 C90.716176,56.9550453 90.294932,54.5479371 87.8276461,54.0665155 C87.9480015,50.2753201 85.0594717,50.7567417 84.999294,49.9744316 C84.9391163,49.49301 84.5780501,48.4098113 83.5550291,48.2894559 C83.1939629,49.7337208 80.3054331,50.3354978 79.703656,50.6363863 C78.3797465,51.5390519 78.0186803,52.5620729 78.0186803,54.0665155 Z M79.5231229,56.5939791 C79.9443668,56.5939791 80.3054331,56.9550453 80.3054331,57.3762892 C80.3054331,57.7975332 79.9443668,58.1585994 79.5231229,58.1585994 C79.101879,58.1585994 78.7408128,57.7975332 78.7408128,57.3762892 C78.7408128,56.9550453 79.101879,56.5939791 79.5231229,56.5939791 Z M86.3232035,56.5939791 C86.7444475,56.5939791 87.1055137,56.9550453 87.1055137,57.3762892 C87.1055137,57.7975332 86.7444475,58.1585994 86.3232035,58.1585994 C85.9019596,58.1585994 85.6010711,57.7975332 85.6010711,57.3762892 C85.6010711,56.9550453 85.9019596,56.5939791 86.3232035,56.5939791 Z M84.7585832,59.663042 C84.9391163,59.0010873 85.9019596,59.3019758 85.7214265,59.9639305 C84.9391163,62.9126381 80.726677,62.9126381 79.9443668,59.9639305 C79.7638337,59.3019758 80.7868547,59.0010873 80.9673878,59.663042 C81.4488095,61.5887286 84.2169839,61.5887286 84.7585832,59.663042 Z" id="Shape" transform="translate(82.926177, 57.050954) rotate(-345.000000) translate(-82.926177, -57.050954) "></path>
        </g>
    </g>
</svg>