<?xml version="1.0" encoding="UTF-8"?>
<svg width="32px" height="29px" viewBox="0 0 32 29" version="1.1" xmlns="http://www.w3.org/2000/svg" xmlns:xlink="http://www.w3.org/1999/xlink">
    <!-- Generator: Sketch 47 (45396) - http://www.bohemiancoding.com/sketch -->
    <title>Shape</title>
    <desc>Created with Sketch.</desc>
    <defs></defs>
    <g id="Page-1" stroke="none" stroke-width="1" fill="none" fill-rule="evenodd">
        <g id="Desktop-HD" transform="translate(-70.000000, -412.000000)" fill="#C29272">
            <g id="Group" transform="translate(70.000000, 405.000000)">
                <g id="Group-2" transform="translate(0.000000, 7.000000)">
                    <path d="M8.14741656,9.24398758 C4.19946353,10.0143199 3.62171431,13.8659814 4.68092122,17.1398936 C4.29575507,17.4287683 1.50330049,17.5250598 0.347802043,20.606389 C-0.518821793,23.0136774 0.347802043,25.3246743 1.69588356,26.5764643 C3.52542277,28.309712 5.06608737,28.0208374 8.05112503,28.0208374 L23.8429371,28.0208374 C26.8279748,28.0208374 28.3686394,28.309712 30.2944701,26.5764643 C32.8943416,24.2654674 32.605467,19.2583075 28.8500971,17.6213513 C28.3686394,17.4287683 27.5020156,17.3324767 27.3094325,17.1398936 C28.4649309,13.8659814 27.7908902,10.0143199 23.8429371,9.24398758 C24.0355202,3.17762073 19.4135264,3.94795303 19.3172349,2.69616304 C19.2209434,1.92583075 18.6431941,0.192583075 17.006238,0 C16.4284888,2.3109969 11.806495,3.27391227 10.8435796,3.75536995 C8.72516579,5.19974301 8.14741656,6.83669915 8.14741656,9.24398758 Z M10.554705,13.2882321 C11.2287458,13.2882321 11.806495,13.8659814 11.806495,14.5400221 C11.806495,15.2140629 11.2287458,15.7918121 10.554705,15.7918121 C9.88066423,15.7918121 9.30291501,15.2140629 9.30291501,14.5400221 C9.30291501,13.8659814 9.88066423,13.2882321 10.554705,13.2882321 Z M21.4356487,13.2882321 C22.1096895,13.2882321 22.6874387,13.8659814 22.6874387,14.5400221 C22.6874387,15.2140629 22.1096895,15.7918121 21.4356487,15.7918121 C20.7616079,15.7918121 20.2801503,15.2140629 20.2801503,14.5400221 C20.2801503,13.8659814 20.7616079,13.2882321 21.4356487,13.2882321 Z M18.9320687,18.1991005 C19.2209434,17.1398936 20.7616079,17.6213513 20.4727333,18.6805582 C19.2209434,23.3988436 12.4805357,23.3988436 11.2287458,18.6805582 C10.9398711,17.6213513 12.5768273,17.1398936 12.8657019,18.1991005 C13.6360342,21.2804297 18.0654449,21.2804297 18.9320687,18.1991005 Z" id="Shape"></path>
                </g>
            </g>
        </g>
    </g>
</svg>