<?xml version="1.0" encoding="UTF-8"?>
<svg width="20px" height="18px" viewBox="0 0 20 18" version="1.1" xmlns="http://www.w3.org/2000/svg" xmlns:xlink="http://www.w3.org/1999/xlink">
    <!-- Generator: Sketch 47 (45396) - http://www.bohemiancoding.com/sketch -->
    <title>Combined Shape</title>
    <desc>Created with Sketch.</desc>
    <defs></defs>
    <g id="Page-1" stroke="none" stroke-width="1" fill="none" fill-rule="evenodd">
        <g id="Desktop-HD" transform="translate(-1339.000000, -50.000000)" fill="#90B476">
            <g id="Group-3" transform="translate(1225.000000, 50.000000)">
                <path d="M124.625,10 L124.625,7.5 C124.625,7.15482203 124.345178,6.875 124,6.875 C123.654822,6.875 123.375,7.15482203 123.375,7.5 L123.375,10 L120.875,10 C120.529822,10 120.25,10.279822 120.25,10.625 C120.25,10.970178 120.529822,11.25 120.875,11.25 L120.875,11.25 L123.375,11.25 L123.375,13.75 C123.375,14.095178 123.654822,14.375 124,14.375 C124.345178,14.375 124.625,14.095178 124.625,13.75 L124.625,11.25 L127.125,11.25 C127.470178,11.25 127.75,10.970178 127.75,10.625 C127.75,10.279822 127.470178,10 127.125,10 L124.625,10 Z M119.092135,5.77749224 C119.092135,4.27293697 119.453229,3.24983938 120.777237,2.34710622 C121.379059,2.04619517 124.267805,1.44437306 124.628899,0 C125.651996,0.120364422 126.01309,1.20364422 126.073272,1.6851019 C126.133454,2.46747064 129.0222,1.98601296 128.901836,5.77749224 C131.369306,6.25894992 131.790582,8.66623836 131.068395,10.7124335 C131.18876,10.8327979 131.7304,10.8929802 132.031311,11.0133446 C134.378417,12.0364422 134.558964,15.1659171 132.934044,16.6102902 C131.7304,17.69357 130.767484,17.5130233 128.901836,17.5130233 L119.031953,17.5130233 C117.166305,17.5130233 116.203389,17.69357 115.059927,16.6102902 C114.217376,15.8279214 113.675736,14.3835484 114.217376,12.8789931 C114.939563,10.9531624 116.684847,10.8929802 116.925576,10.7124335 C116.263571,8.66623836 116.624665,6.25894992 119.092135,5.77749224 Z" id="Combined-Shape"></path>
            </g>
        </g>
    </g>
</svg>